<mxfile host="app.diagrams.net" modified="2024-03-11T10:05:50.272Z" agent="Mozilla/5.0 (Windows NT 10.0; Win64; x64) AppleWebKit/537.36 (KHTML, like Gecko) Chrome/122.0.0.0 Safari/537.36" etag="5GJ-t9D_XOUFbdyLMykF" version="24.0.4" type="device">
  <diagram id="C5RBs43oDa-KdzZeNtuy" name="Page-1">
    <mxGraphModel dx="1687" dy="878" grid="0" gridSize="10" guides="1" tooltips="1" connect="1" arrows="1" fold="1" page="1" pageScale="1" pageWidth="827" pageHeight="1169" math="0" shadow="0">
      <root>
        <mxCell id="WIyWlLk6GJQsqaUBKTNV-0" />
        <mxCell id="WIyWlLk6GJQsqaUBKTNV-1" parent="WIyWlLk6GJQsqaUBKTNV-0" />
        <mxCell id="WIyWlLk6GJQsqaUBKTNV-3" value="func" style="rounded=1;whiteSpace=wrap;html=1;fontSize=17;glass=0;strokeWidth=1;shadow=0;" parent="WIyWlLk6GJQsqaUBKTNV-1" vertex="1">
          <mxGeometry x="333" y="77" width="120" height="40" as="geometry" />
        </mxCell>
        <mxCell id="WIyWlLk6GJQsqaUBKTNV-11" value="Конец" style="rounded=1;whiteSpace=wrap;html=1;fontSize=12;glass=0;strokeWidth=1;shadow=0;" parent="WIyWlLk6GJQsqaUBKTNV-1" vertex="1">
          <mxGeometry x="311" y="901" width="120" height="40" as="geometry" />
        </mxCell>
        <mxCell id="6moriQLyFXrOPChxs1bC-0" value="Вход. пар-ры: x,a,z,b,c&lt;br style=&quot;font-size: 14px;&quot;&gt;Возвр. знач.: func" style="text;html=1;strokeColor=none;fillColor=none;align=left;verticalAlign=middle;whiteSpace=wrap;rounded=0;fontSize=14;" parent="WIyWlLk6GJQsqaUBKTNV-1" vertex="1">
          <mxGeometry x="523" y="82" width="160" height="30" as="geometry" />
        </mxCell>
        <mxCell id="6moriQLyFXrOPChxs1bC-2" value="" style="endArrow=none;html=1;rounded=0;entryX=1;entryY=0.5;entryDx=0;entryDy=0;exitX=0;exitY=0.5;exitDx=0;exitDy=0;" parent="WIyWlLk6GJQsqaUBKTNV-1" source="6moriQLyFXrOPChxs1bC-0" target="WIyWlLk6GJQsqaUBKTNV-3" edge="1">
          <mxGeometry width="50" height="50" relative="1" as="geometry">
            <mxPoint x="433" y="167" as="sourcePoint" />
            <mxPoint x="483" y="117" as="targetPoint" />
          </mxGeometry>
        </mxCell>
        <mxCell id="6moriQLyFXrOPChxs1bC-5" value="" style="endArrow=none;html=1;rounded=0;" parent="WIyWlLk6GJQsqaUBKTNV-1" edge="1">
          <mxGeometry width="50" height="50" relative="1" as="geometry">
            <mxPoint x="523" y="77" as="sourcePoint" />
            <mxPoint x="523" y="97" as="targetPoint" />
          </mxGeometry>
        </mxCell>
        <mxCell id="6moriQLyFXrOPChxs1bC-7" value="" style="endArrow=none;html=1;rounded=0;" parent="WIyWlLk6GJQsqaUBKTNV-1" edge="1">
          <mxGeometry width="50" height="50" relative="1" as="geometry">
            <mxPoint x="523" y="117" as="sourcePoint" />
            <mxPoint x="523" y="97" as="targetPoint" />
          </mxGeometry>
        </mxCell>
        <mxCell id="6moriQLyFXrOPChxs1bC-8" value="" style="endArrow=none;html=1;rounded=0;" parent="WIyWlLk6GJQsqaUBKTNV-1" edge="1">
          <mxGeometry width="50" height="50" relative="1" as="geometry">
            <mxPoint x="523" y="117" as="sourcePoint" />
            <mxPoint x="563" y="117" as="targetPoint" />
          </mxGeometry>
        </mxCell>
        <mxCell id="6moriQLyFXrOPChxs1bC-9" value="" style="endArrow=none;html=1;rounded=0;" parent="WIyWlLk6GJQsqaUBKTNV-1" edge="1">
          <mxGeometry width="50" height="50" relative="1" as="geometry">
            <mxPoint x="523" y="77" as="sourcePoint" />
            <mxPoint x="563" y="77" as="targetPoint" />
          </mxGeometry>
        </mxCell>
        <mxCell id="YWLN9xPVWwnnbP-Pcery-0" value="" style="endArrow=none;html=1;rounded=0;exitX=0.5;exitY=1;exitDx=0;exitDy=0;entryX=0.5;entryY=0;entryDx=0;entryDy=0;" parent="WIyWlLk6GJQsqaUBKTNV-1" source="WIyWlLk6GJQsqaUBKTNV-3" edge="1" target="WeFQbFHnC3xoli6v-mbd-0">
          <mxGeometry width="50" height="50" relative="1" as="geometry">
            <mxPoint x="561" y="392" as="sourcePoint" />
            <mxPoint x="393" y="167" as="targetPoint" />
          </mxGeometry>
        </mxCell>
        <mxCell id="WeFQbFHnC3xoli6v-mbd-0" value="x &amp;lt; 0 И z &amp;lt; 0" style="rhombus;whiteSpace=wrap;html=1;fontSize=18;" vertex="1" parent="WIyWlLk6GJQsqaUBKTNV-1">
          <mxGeometry x="317" y="144" width="152" height="80" as="geometry" />
        </mxCell>
        <mxCell id="WeFQbFHnC3xoli6v-mbd-1" value="" style="endArrow=none;html=1;rounded=0;exitX=0;exitY=0.5;exitDx=0;exitDy=0;" edge="1" parent="WIyWlLk6GJQsqaUBKTNV-1" source="WeFQbFHnC3xoli6v-mbd-0">
          <mxGeometry width="50" height="50" relative="1" as="geometry">
            <mxPoint x="560" y="366" as="sourcePoint" />
            <mxPoint x="120" y="184" as="targetPoint" />
          </mxGeometry>
        </mxCell>
        <mxCell id="WeFQbFHnC3xoli6v-mbd-2" value="Да" style="text;html=1;align=center;verticalAlign=middle;whiteSpace=wrap;rounded=0;fontSize=18;" vertex="1" parent="WIyWlLk6GJQsqaUBKTNV-1">
          <mxGeometry x="269" y="160" width="60" height="30" as="geometry" />
        </mxCell>
        <mxCell id="WeFQbFHnC3xoli6v-mbd-4" value="" style="endArrow=none;html=1;rounded=0;exitX=1;exitY=0.5;exitDx=0;exitDy=0;" edge="1" parent="WIyWlLk6GJQsqaUBKTNV-1" source="WeFQbFHnC3xoli6v-mbd-0">
          <mxGeometry width="50" height="50" relative="1" as="geometry">
            <mxPoint x="560" y="366" as="sourcePoint" />
            <mxPoint x="545" y="184" as="targetPoint" />
          </mxGeometry>
        </mxCell>
        <mxCell id="WeFQbFHnC3xoli6v-mbd-5" value="0 &amp;lt;= x &amp;lt; 4 И 0 &amp;lt;= z &amp;lt; 3" style="rhombus;whiteSpace=wrap;html=1;fontSize=14;" vertex="1" parent="WIyWlLk6GJQsqaUBKTNV-1">
          <mxGeometry x="457" y="258" width="174" height="80" as="geometry" />
        </mxCell>
        <mxCell id="WeFQbFHnC3xoli6v-mbd-6" value="" style="endArrow=none;html=1;rounded=0;entryX=0.5;entryY=0;entryDx=0;entryDy=0;" edge="1" parent="WIyWlLk6GJQsqaUBKTNV-1" target="WeFQbFHnC3xoli6v-mbd-5">
          <mxGeometry width="50" height="50" relative="1" as="geometry">
            <mxPoint x="543" y="183" as="sourcePoint" />
            <mxPoint x="555" y="194" as="targetPoint" />
          </mxGeometry>
        </mxCell>
        <mxCell id="WeFQbFHnC3xoli6v-mbd-7" value="" style="endArrow=none;html=1;rounded=0;entryX=0;entryY=0.5;entryDx=0;entryDy=0;" edge="1" parent="WIyWlLk6GJQsqaUBKTNV-1" target="WeFQbFHnC3xoli6v-mbd-5">
          <mxGeometry width="50" height="50" relative="1" as="geometry">
            <mxPoint x="371" y="298" as="sourcePoint" />
            <mxPoint x="393" y="296" as="targetPoint" />
          </mxGeometry>
        </mxCell>
        <mxCell id="WeFQbFHnC3xoli6v-mbd-9" value="Нет" style="text;html=1;align=center;verticalAlign=middle;whiteSpace=wrap;rounded=0;fontSize=18;" vertex="1" parent="WIyWlLk6GJQsqaUBKTNV-1">
          <mxGeometry x="463" y="157" width="60" height="30" as="geometry" />
        </mxCell>
        <mxCell id="WeFQbFHnC3xoli6v-mbd-10" value="Да" style="text;html=1;align=center;verticalAlign=middle;whiteSpace=wrap;rounded=0;fontSize=18;" vertex="1" parent="WIyWlLk6GJQsqaUBKTNV-1">
          <mxGeometry x="407" y="270" width="60" height="30" as="geometry" />
        </mxCell>
        <mxCell id="WeFQbFHnC3xoli6v-mbd-11" value="Нет" style="text;html=1;align=center;verticalAlign=middle;whiteSpace=wrap;rounded=0;fontSize=18;" vertex="1" parent="WIyWlLk6GJQsqaUBKTNV-1">
          <mxGeometry x="623" y="270" width="60" height="30" as="geometry" />
        </mxCell>
        <mxCell id="WeFQbFHnC3xoli6v-mbd-12" value="" style="endArrow=none;html=1;rounded=0;" edge="1" parent="WIyWlLk6GJQsqaUBKTNV-1">
          <mxGeometry width="50" height="50" relative="1" as="geometry">
            <mxPoint x="631" y="297.83" as="sourcePoint" />
            <mxPoint x="691" y="298" as="targetPoint" />
          </mxGeometry>
        </mxCell>
        <mxCell id="WeFQbFHnC3xoli6v-mbd-13" value="func = b + cx" style="rounded=0;whiteSpace=wrap;html=1;fontSize=16;" vertex="1" parent="WIyWlLk6GJQsqaUBKTNV-1">
          <mxGeometry x="631" y="338" width="120" height="60" as="geometry" />
        </mxCell>
        <mxCell id="WeFQbFHnC3xoli6v-mbd-14" value="" style="endArrow=none;html=1;rounded=0;entryX=0.5;entryY=0;entryDx=0;entryDy=0;" edge="1" parent="WIyWlLk6GJQsqaUBKTNV-1" target="WeFQbFHnC3xoli6v-mbd-13">
          <mxGeometry width="50" height="50" relative="1" as="geometry">
            <mxPoint x="690" y="298" as="sourcePoint" />
            <mxPoint x="727" y="307.83" as="targetPoint" />
          </mxGeometry>
        </mxCell>
        <mxCell id="WeFQbFHnC3xoli6v-mbd-15" value="m = z" style="rounded=0;whiteSpace=wrap;html=1;fontSize=16;" vertex="1" parent="WIyWlLk6GJQsqaUBKTNV-1">
          <mxGeometry x="311" y="326" width="120" height="60" as="geometry" />
        </mxCell>
        <mxCell id="WeFQbFHnC3xoli6v-mbd-16" value="" style="endArrow=none;html=1;rounded=0;entryX=0.5;entryY=0;entryDx=0;entryDy=0;" edge="1" parent="WIyWlLk6GJQsqaUBKTNV-1" target="WeFQbFHnC3xoli6v-mbd-15">
          <mxGeometry width="50" height="50" relative="1" as="geometry">
            <mxPoint x="371" y="297" as="sourcePoint" />
            <mxPoint x="467" y="308" as="targetPoint" />
          </mxGeometry>
        </mxCell>
        <mxCell id="WeFQbFHnC3xoli6v-mbd-17" value="sqrt(x) &amp;gt; m" style="rhombus;whiteSpace=wrap;html=1;fontSize=18;" vertex="1" parent="WIyWlLk6GJQsqaUBKTNV-1">
          <mxGeometry x="295" y="413" width="152" height="80" as="geometry" />
        </mxCell>
        <mxCell id="WeFQbFHnC3xoli6v-mbd-19" value="" style="endArrow=none;html=1;rounded=0;entryX=0.5;entryY=1;entryDx=0;entryDy=0;exitX=0.5;exitY=0;exitDx=0;exitDy=0;" edge="1" parent="WIyWlLk6GJQsqaUBKTNV-1" source="WeFQbFHnC3xoli6v-mbd-17" target="WeFQbFHnC3xoli6v-mbd-15">
          <mxGeometry width="50" height="50" relative="1" as="geometry">
            <mxPoint x="381" y="307" as="sourcePoint" />
            <mxPoint x="381" y="336" as="targetPoint" />
          </mxGeometry>
        </mxCell>
        <mxCell id="WeFQbFHnC3xoli6v-mbd-20" value="" style="endArrow=none;html=1;rounded=0;exitX=0;exitY=0.5;exitDx=0;exitDy=0;" edge="1" parent="WIyWlLk6GJQsqaUBKTNV-1" source="WeFQbFHnC3xoli6v-mbd-17">
          <mxGeometry width="50" height="50" relative="1" as="geometry">
            <mxPoint x="381" y="308" as="sourcePoint" />
            <mxPoint x="257" y="453" as="targetPoint" />
          </mxGeometry>
        </mxCell>
        <mxCell id="WeFQbFHnC3xoli6v-mbd-21" value="m = sqrt(x)" style="rounded=0;whiteSpace=wrap;html=1;fontSize=16;" vertex="1" parent="WIyWlLk6GJQsqaUBKTNV-1">
          <mxGeometry x="311" y="511" width="120" height="60" as="geometry" />
        </mxCell>
        <mxCell id="WeFQbFHnC3xoli6v-mbd-22" value="" style="endArrow=none;html=1;rounded=0;" edge="1" parent="WIyWlLk6GJQsqaUBKTNV-1">
          <mxGeometry width="50" height="50" relative="1" as="geometry">
            <mxPoint x="257" y="541" as="sourcePoint" />
            <mxPoint x="257" y="453" as="targetPoint" />
          </mxGeometry>
        </mxCell>
        <mxCell id="WeFQbFHnC3xoli6v-mbd-23" value="" style="endArrow=none;html=1;rounded=0;exitX=0;exitY=0.5;exitDx=0;exitDy=0;" edge="1" parent="WIyWlLk6GJQsqaUBKTNV-1" source="WeFQbFHnC3xoli6v-mbd-21">
          <mxGeometry width="50" height="50" relative="1" as="geometry">
            <mxPoint x="305" y="463" as="sourcePoint" />
            <mxPoint x="257" y="541" as="targetPoint" />
          </mxGeometry>
        </mxCell>
        <mxCell id="WeFQbFHnC3xoli6v-mbd-24" value="" style="endArrow=none;html=1;rounded=0;exitX=0.5;exitY=1;exitDx=0;exitDy=0;" edge="1" parent="WIyWlLk6GJQsqaUBKTNV-1" source="WeFQbFHnC3xoli6v-mbd-21">
          <mxGeometry width="50" height="50" relative="1" as="geometry">
            <mxPoint x="370" y="548" as="sourcePoint" />
            <mxPoint x="371" y="604" as="targetPoint" />
          </mxGeometry>
        </mxCell>
        <mxCell id="WeFQbFHnC3xoli6v-mbd-25" value="Да" style="text;html=1;align=center;verticalAlign=middle;whiteSpace=wrap;rounded=0;fontSize=18;" vertex="1" parent="WIyWlLk6GJQsqaUBKTNV-1">
          <mxGeometry x="257" y="428" width="60" height="30" as="geometry" />
        </mxCell>
        <mxCell id="WeFQbFHnC3xoli6v-mbd-26" value="Нет" style="text;html=1;align=center;verticalAlign=middle;whiteSpace=wrap;rounded=0;fontSize=18;" vertex="1" parent="WIyWlLk6GJQsqaUBKTNV-1">
          <mxGeometry x="431" y="428" width="60" height="30" as="geometry" />
        </mxCell>
        <mxCell id="WeFQbFHnC3xoli6v-mbd-27" value="" style="endArrow=none;html=1;rounded=0;entryX=1;entryY=0.5;entryDx=0;entryDy=0;" edge="1" parent="WIyWlLk6GJQsqaUBKTNV-1" target="WeFQbFHnC3xoli6v-mbd-17">
          <mxGeometry width="50" height="50" relative="1" as="geometry">
            <mxPoint x="471" y="453" as="sourcePoint" />
            <mxPoint x="267" y="463" as="targetPoint" />
          </mxGeometry>
        </mxCell>
        <mxCell id="WeFQbFHnC3xoli6v-mbd-28" value="" style="endArrow=none;html=1;rounded=0;" edge="1" parent="WIyWlLk6GJQsqaUBKTNV-1">
          <mxGeometry width="50" height="50" relative="1" as="geometry">
            <mxPoint x="473" y="584" as="sourcePoint" />
            <mxPoint x="471" y="453" as="targetPoint" />
          </mxGeometry>
        </mxCell>
        <mxCell id="WeFQbFHnC3xoli6v-mbd-29" value="" style="endArrow=none;html=1;rounded=0;" edge="1" parent="WIyWlLk6GJQsqaUBKTNV-1">
          <mxGeometry width="50" height="50" relative="1" as="geometry">
            <mxPoint x="371" y="585" as="sourcePoint" />
            <mxPoint x="473" y="584" as="targetPoint" />
          </mxGeometry>
        </mxCell>
        <mxCell id="WeFQbFHnC3xoli6v-mbd-30" value="abs(sqrt(x)) &amp;gt; m" style="rhombus;whiteSpace=wrap;html=1;fontSize=17;" vertex="1" parent="WIyWlLk6GJQsqaUBKTNV-1">
          <mxGeometry x="295" y="604" width="152" height="80" as="geometry" />
        </mxCell>
        <mxCell id="WeFQbFHnC3xoli6v-mbd-31" value="" style="endArrow=none;html=1;rounded=0;exitX=0;exitY=0.5;exitDx=0;exitDy=0;" edge="1" parent="WIyWlLk6GJQsqaUBKTNV-1" source="WeFQbFHnC3xoli6v-mbd-30">
          <mxGeometry width="50" height="50" relative="1" as="geometry">
            <mxPoint x="381" y="499" as="sourcePoint" />
            <mxPoint x="257" y="644" as="targetPoint" />
          </mxGeometry>
        </mxCell>
        <mxCell id="WeFQbFHnC3xoli6v-mbd-32" value="m =&amp;nbsp;&lt;span style=&quot;font-size: 15px;&quot;&gt;abs(sqrt(x))&lt;/span&gt;" style="rounded=0;whiteSpace=wrap;html=1;fontSize=15;" vertex="1" parent="WIyWlLk6GJQsqaUBKTNV-1">
          <mxGeometry x="311" y="702" width="120" height="60" as="geometry" />
        </mxCell>
        <mxCell id="WeFQbFHnC3xoli6v-mbd-33" value="" style="endArrow=none;html=1;rounded=0;" edge="1" parent="WIyWlLk6GJQsqaUBKTNV-1">
          <mxGeometry width="50" height="50" relative="1" as="geometry">
            <mxPoint x="257" y="732" as="sourcePoint" />
            <mxPoint x="257" y="644" as="targetPoint" />
          </mxGeometry>
        </mxCell>
        <mxCell id="WeFQbFHnC3xoli6v-mbd-34" value="" style="endArrow=none;html=1;rounded=0;exitX=0;exitY=0.5;exitDx=0;exitDy=0;" edge="1" parent="WIyWlLk6GJQsqaUBKTNV-1" source="WeFQbFHnC3xoli6v-mbd-32">
          <mxGeometry width="50" height="50" relative="1" as="geometry">
            <mxPoint x="305" y="654" as="sourcePoint" />
            <mxPoint x="257" y="732" as="targetPoint" />
          </mxGeometry>
        </mxCell>
        <mxCell id="WeFQbFHnC3xoli6v-mbd-35" value="" style="endArrow=none;html=1;rounded=0;exitX=0.5;exitY=1;exitDx=0;exitDy=0;" edge="1" parent="WIyWlLk6GJQsqaUBKTNV-1" source="WeFQbFHnC3xoli6v-mbd-32">
          <mxGeometry width="50" height="50" relative="1" as="geometry">
            <mxPoint x="370" y="739" as="sourcePoint" />
            <mxPoint x="371" y="795" as="targetPoint" />
          </mxGeometry>
        </mxCell>
        <mxCell id="WeFQbFHnC3xoli6v-mbd-36" value="Да" style="text;html=1;align=center;verticalAlign=middle;whiteSpace=wrap;rounded=0;fontSize=18;" vertex="1" parent="WIyWlLk6GJQsqaUBKTNV-1">
          <mxGeometry x="257" y="619" width="60" height="30" as="geometry" />
        </mxCell>
        <mxCell id="WeFQbFHnC3xoli6v-mbd-37" value="Нет" style="text;html=1;align=center;verticalAlign=middle;whiteSpace=wrap;rounded=0;fontSize=18;" vertex="1" parent="WIyWlLk6GJQsqaUBKTNV-1">
          <mxGeometry x="431" y="619" width="60" height="30" as="geometry" />
        </mxCell>
        <mxCell id="WeFQbFHnC3xoli6v-mbd-38" value="" style="endArrow=none;html=1;rounded=0;entryX=1;entryY=0.5;entryDx=0;entryDy=0;" edge="1" parent="WIyWlLk6GJQsqaUBKTNV-1" target="WeFQbFHnC3xoli6v-mbd-30">
          <mxGeometry width="50" height="50" relative="1" as="geometry">
            <mxPoint x="471" y="644" as="sourcePoint" />
            <mxPoint x="267" y="654" as="targetPoint" />
          </mxGeometry>
        </mxCell>
        <mxCell id="WeFQbFHnC3xoli6v-mbd-39" value="" style="endArrow=none;html=1;rounded=0;" edge="1" parent="WIyWlLk6GJQsqaUBKTNV-1">
          <mxGeometry width="50" height="50" relative="1" as="geometry">
            <mxPoint x="473" y="775" as="sourcePoint" />
            <mxPoint x="471" y="644" as="targetPoint" />
          </mxGeometry>
        </mxCell>
        <mxCell id="WeFQbFHnC3xoli6v-mbd-40" value="" style="endArrow=none;html=1;rounded=0;" edge="1" parent="WIyWlLk6GJQsqaUBKTNV-1">
          <mxGeometry width="50" height="50" relative="1" as="geometry">
            <mxPoint x="371" y="776" as="sourcePoint" />
            <mxPoint x="473" y="775" as="targetPoint" />
          </mxGeometry>
        </mxCell>
        <mxCell id="WeFQbFHnC3xoli6v-mbd-42" value="func = ln(b^2)+m" style="rounded=0;whiteSpace=wrap;html=1;fontSize=16;" vertex="1" parent="WIyWlLk6GJQsqaUBKTNV-1">
          <mxGeometry x="311" y="795" width="120" height="60" as="geometry" />
        </mxCell>
        <mxCell id="WeFQbFHnC3xoli6v-mbd-44" value="m = x" style="rounded=0;whiteSpace=wrap;html=1;fontSize=16;" vertex="1" parent="WIyWlLk6GJQsqaUBKTNV-1">
          <mxGeometry x="60" y="224" width="120" height="60" as="geometry" />
        </mxCell>
        <mxCell id="WeFQbFHnC3xoli6v-mbd-45" value="" style="endArrow=none;html=1;rounded=0;entryX=0.5;entryY=0;entryDx=0;entryDy=0;" edge="1" parent="WIyWlLk6GJQsqaUBKTNV-1" target="WeFQbFHnC3xoli6v-mbd-44">
          <mxGeometry width="50" height="50" relative="1" as="geometry">
            <mxPoint x="120" y="184" as="sourcePoint" />
            <mxPoint x="171" y="194" as="targetPoint" />
          </mxGeometry>
        </mxCell>
        <mxCell id="WeFQbFHnC3xoli6v-mbd-57" value="a &amp;gt; m" style="rhombus;whiteSpace=wrap;html=1;fontSize=18;" vertex="1" parent="WIyWlLk6GJQsqaUBKTNV-1">
          <mxGeometry x="44" y="305" width="152" height="80" as="geometry" />
        </mxCell>
        <mxCell id="WeFQbFHnC3xoli6v-mbd-58" value="" style="endArrow=none;html=1;rounded=0;exitX=0;exitY=0.5;exitDx=0;exitDy=0;" edge="1" parent="WIyWlLk6GJQsqaUBKTNV-1" source="WeFQbFHnC3xoli6v-mbd-57">
          <mxGeometry width="50" height="50" relative="1" as="geometry">
            <mxPoint x="130" y="200" as="sourcePoint" />
            <mxPoint x="6" y="345" as="targetPoint" />
          </mxGeometry>
        </mxCell>
        <mxCell id="WeFQbFHnC3xoli6v-mbd-59" value="m = a" style="rounded=0;whiteSpace=wrap;html=1;fontSize=16;" vertex="1" parent="WIyWlLk6GJQsqaUBKTNV-1">
          <mxGeometry x="60" y="403" width="120" height="60" as="geometry" />
        </mxCell>
        <mxCell id="WeFQbFHnC3xoli6v-mbd-60" value="" style="endArrow=none;html=1;rounded=0;" edge="1" parent="WIyWlLk6GJQsqaUBKTNV-1">
          <mxGeometry width="50" height="50" relative="1" as="geometry">
            <mxPoint x="6" y="433" as="sourcePoint" />
            <mxPoint x="6" y="345" as="targetPoint" />
          </mxGeometry>
        </mxCell>
        <mxCell id="WeFQbFHnC3xoli6v-mbd-61" value="" style="endArrow=none;html=1;rounded=0;exitX=0;exitY=0.5;exitDx=0;exitDy=0;" edge="1" parent="WIyWlLk6GJQsqaUBKTNV-1" source="WeFQbFHnC3xoli6v-mbd-59">
          <mxGeometry width="50" height="50" relative="1" as="geometry">
            <mxPoint x="54" y="355" as="sourcePoint" />
            <mxPoint x="6" y="433" as="targetPoint" />
          </mxGeometry>
        </mxCell>
        <mxCell id="WeFQbFHnC3xoli6v-mbd-62" value="" style="endArrow=none;html=1;rounded=0;exitX=0.5;exitY=1;exitDx=0;exitDy=0;" edge="1" parent="WIyWlLk6GJQsqaUBKTNV-1" source="WeFQbFHnC3xoli6v-mbd-59">
          <mxGeometry width="50" height="50" relative="1" as="geometry">
            <mxPoint x="119" y="440" as="sourcePoint" />
            <mxPoint x="120" y="496" as="targetPoint" />
          </mxGeometry>
        </mxCell>
        <mxCell id="WeFQbFHnC3xoli6v-mbd-63" value="Да" style="text;html=1;align=center;verticalAlign=middle;whiteSpace=wrap;rounded=0;fontSize=18;" vertex="1" parent="WIyWlLk6GJQsqaUBKTNV-1">
          <mxGeometry x="6" y="320" width="60" height="30" as="geometry" />
        </mxCell>
        <mxCell id="WeFQbFHnC3xoli6v-mbd-64" value="Нет" style="text;html=1;align=center;verticalAlign=middle;whiteSpace=wrap;rounded=0;fontSize=18;" vertex="1" parent="WIyWlLk6GJQsqaUBKTNV-1">
          <mxGeometry x="180" y="320" width="60" height="30" as="geometry" />
        </mxCell>
        <mxCell id="WeFQbFHnC3xoli6v-mbd-65" value="" style="endArrow=none;html=1;rounded=0;entryX=1;entryY=0.5;entryDx=0;entryDy=0;" edge="1" parent="WIyWlLk6GJQsqaUBKTNV-1" target="WeFQbFHnC3xoli6v-mbd-57">
          <mxGeometry width="50" height="50" relative="1" as="geometry">
            <mxPoint x="220" y="345" as="sourcePoint" />
            <mxPoint x="16" y="355" as="targetPoint" />
          </mxGeometry>
        </mxCell>
        <mxCell id="WeFQbFHnC3xoli6v-mbd-66" value="" style="endArrow=none;html=1;rounded=0;" edge="1" parent="WIyWlLk6GJQsqaUBKTNV-1">
          <mxGeometry width="50" height="50" relative="1" as="geometry">
            <mxPoint x="222" y="476" as="sourcePoint" />
            <mxPoint x="220" y="345" as="targetPoint" />
          </mxGeometry>
        </mxCell>
        <mxCell id="WeFQbFHnC3xoli6v-mbd-67" value="" style="endArrow=none;html=1;rounded=0;" edge="1" parent="WIyWlLk6GJQsqaUBKTNV-1">
          <mxGeometry width="50" height="50" relative="1" as="geometry">
            <mxPoint x="120" y="477" as="sourcePoint" />
            <mxPoint x="222" y="476" as="targetPoint" />
          </mxGeometry>
        </mxCell>
        <mxCell id="WeFQbFHnC3xoli6v-mbd-68" value="" style="endArrow=none;html=1;rounded=0;exitX=0.5;exitY=0;exitDx=0;exitDy=0;entryX=0.5;entryY=1;entryDx=0;entryDy=0;" edge="1" parent="WIyWlLk6GJQsqaUBKTNV-1" source="WeFQbFHnC3xoli6v-mbd-57" target="WeFQbFHnC3xoli6v-mbd-44">
          <mxGeometry width="50" height="50" relative="1" as="geometry">
            <mxPoint x="118" y="314" as="sourcePoint" />
            <mxPoint x="168" y="264" as="targetPoint" />
          </mxGeometry>
        </mxCell>
        <mxCell id="WeFQbFHnC3xoli6v-mbd-69" value="m2 = z" style="rounded=0;whiteSpace=wrap;html=1;fontSize=16;" vertex="1" parent="WIyWlLk6GJQsqaUBKTNV-1">
          <mxGeometry x="60" y="496" width="120" height="60" as="geometry" />
        </mxCell>
        <mxCell id="WeFQbFHnC3xoli6v-mbd-70" value="x*a^m &amp;lt; m2" style="rhombus;whiteSpace=wrap;html=1;fontSize=18;" vertex="1" parent="WIyWlLk6GJQsqaUBKTNV-1">
          <mxGeometry x="44" y="571" width="152" height="80" as="geometry" />
        </mxCell>
        <mxCell id="WeFQbFHnC3xoli6v-mbd-71" value="" style="endArrow=none;html=1;rounded=0;exitX=0;exitY=0.5;exitDx=0;exitDy=0;" edge="1" parent="WIyWlLk6GJQsqaUBKTNV-1" source="WeFQbFHnC3xoli6v-mbd-70">
          <mxGeometry width="50" height="50" relative="1" as="geometry">
            <mxPoint x="130" y="466" as="sourcePoint" />
            <mxPoint x="6" y="611" as="targetPoint" />
          </mxGeometry>
        </mxCell>
        <mxCell id="WeFQbFHnC3xoli6v-mbd-72" value="m2 =&amp;nbsp;&lt;span style=&quot;font-size: 18px;&quot;&gt;x*a^m&lt;/span&gt;" style="rounded=0;whiteSpace=wrap;html=1;fontSize=16;" vertex="1" parent="WIyWlLk6GJQsqaUBKTNV-1">
          <mxGeometry x="60" y="669" width="120" height="60" as="geometry" />
        </mxCell>
        <mxCell id="WeFQbFHnC3xoli6v-mbd-73" value="" style="endArrow=none;html=1;rounded=0;" edge="1" parent="WIyWlLk6GJQsqaUBKTNV-1">
          <mxGeometry width="50" height="50" relative="1" as="geometry">
            <mxPoint x="6" y="699" as="sourcePoint" />
            <mxPoint x="6" y="611" as="targetPoint" />
          </mxGeometry>
        </mxCell>
        <mxCell id="WeFQbFHnC3xoli6v-mbd-74" value="" style="endArrow=none;html=1;rounded=0;exitX=0;exitY=0.5;exitDx=0;exitDy=0;" edge="1" parent="WIyWlLk6GJQsqaUBKTNV-1" source="WeFQbFHnC3xoli6v-mbd-72">
          <mxGeometry width="50" height="50" relative="1" as="geometry">
            <mxPoint x="54" y="621" as="sourcePoint" />
            <mxPoint x="6" y="699" as="targetPoint" />
          </mxGeometry>
        </mxCell>
        <mxCell id="WeFQbFHnC3xoli6v-mbd-75" value="" style="endArrow=none;html=1;rounded=0;exitX=0.5;exitY=1;exitDx=0;exitDy=0;" edge="1" parent="WIyWlLk6GJQsqaUBKTNV-1" source="WeFQbFHnC3xoli6v-mbd-72">
          <mxGeometry width="50" height="50" relative="1" as="geometry">
            <mxPoint x="119" y="706" as="sourcePoint" />
            <mxPoint x="120" y="762" as="targetPoint" />
          </mxGeometry>
        </mxCell>
        <mxCell id="WeFQbFHnC3xoli6v-mbd-76" value="Да" style="text;html=1;align=center;verticalAlign=middle;whiteSpace=wrap;rounded=0;fontSize=18;" vertex="1" parent="WIyWlLk6GJQsqaUBKTNV-1">
          <mxGeometry x="6" y="586" width="60" height="30" as="geometry" />
        </mxCell>
        <mxCell id="WeFQbFHnC3xoli6v-mbd-77" value="Нет" style="text;html=1;align=center;verticalAlign=middle;whiteSpace=wrap;rounded=0;fontSize=18;" vertex="1" parent="WIyWlLk6GJQsqaUBKTNV-1">
          <mxGeometry x="180" y="586" width="60" height="30" as="geometry" />
        </mxCell>
        <mxCell id="WeFQbFHnC3xoli6v-mbd-78" value="" style="endArrow=none;html=1;rounded=0;entryX=1;entryY=0.5;entryDx=0;entryDy=0;" edge="1" parent="WIyWlLk6GJQsqaUBKTNV-1" target="WeFQbFHnC3xoli6v-mbd-70">
          <mxGeometry width="50" height="50" relative="1" as="geometry">
            <mxPoint x="220" y="611" as="sourcePoint" />
            <mxPoint x="16" y="621" as="targetPoint" />
          </mxGeometry>
        </mxCell>
        <mxCell id="WeFQbFHnC3xoli6v-mbd-79" value="" style="endArrow=none;html=1;rounded=0;" edge="1" parent="WIyWlLk6GJQsqaUBKTNV-1">
          <mxGeometry width="50" height="50" relative="1" as="geometry">
            <mxPoint x="222" y="742" as="sourcePoint" />
            <mxPoint x="220" y="611" as="targetPoint" />
          </mxGeometry>
        </mxCell>
        <mxCell id="WeFQbFHnC3xoli6v-mbd-80" value="" style="endArrow=none;html=1;rounded=0;" edge="1" parent="WIyWlLk6GJQsqaUBKTNV-1">
          <mxGeometry width="50" height="50" relative="1" as="geometry">
            <mxPoint x="120" y="743" as="sourcePoint" />
            <mxPoint x="222" y="742" as="targetPoint" />
          </mxGeometry>
        </mxCell>
        <mxCell id="WeFQbFHnC3xoli6v-mbd-81" value="" style="endArrow=none;html=1;rounded=0;exitX=0.5;exitY=1;exitDx=0;exitDy=0;entryX=0.5;entryY=0;entryDx=0;entryDy=0;" edge="1" parent="WIyWlLk6GJQsqaUBKTNV-1" source="WeFQbFHnC3xoli6v-mbd-69" target="WeFQbFHnC3xoli6v-mbd-70">
          <mxGeometry width="50" height="50" relative="1" as="geometry">
            <mxPoint x="86" y="554" as="sourcePoint" />
            <mxPoint x="136" y="504" as="targetPoint" />
          </mxGeometry>
        </mxCell>
        <mxCell id="WeFQbFHnC3xoli6v-mbd-82" value="func = ln(x*a+m2)" style="rounded=0;whiteSpace=wrap;html=1;fontSize=16;" vertex="1" parent="WIyWlLk6GJQsqaUBKTNV-1">
          <mxGeometry x="60" y="762" width="120" height="60" as="geometry" />
        </mxCell>
        <mxCell id="WeFQbFHnC3xoli6v-mbd-83" value="" style="endArrow=none;html=1;rounded=0;exitX=0.5;exitY=1;exitDx=0;exitDy=0;entryX=0.5;entryY=0;entryDx=0;entryDy=0;" edge="1" parent="WIyWlLk6GJQsqaUBKTNV-1" source="WeFQbFHnC3xoli6v-mbd-42" target="WIyWlLk6GJQsqaUBKTNV-11">
          <mxGeometry width="50" height="50" relative="1" as="geometry">
            <mxPoint x="446" y="790" as="sourcePoint" />
            <mxPoint x="496" y="740" as="targetPoint" />
          </mxGeometry>
        </mxCell>
        <mxCell id="WeFQbFHnC3xoli6v-mbd-84" value="" style="endArrow=none;html=1;rounded=0;exitX=0.5;exitY=1;exitDx=0;exitDy=0;" edge="1" parent="WIyWlLk6GJQsqaUBKTNV-1" source="WeFQbFHnC3xoli6v-mbd-82">
          <mxGeometry width="50" height="50" relative="1" as="geometry">
            <mxPoint x="446" y="790" as="sourcePoint" />
            <mxPoint x="120" y="881" as="targetPoint" />
          </mxGeometry>
        </mxCell>
        <mxCell id="WeFQbFHnC3xoli6v-mbd-85" value="" style="endArrow=none;html=1;rounded=0;" edge="1" parent="WIyWlLk6GJQsqaUBKTNV-1">
          <mxGeometry width="50" height="50" relative="1" as="geometry">
            <mxPoint x="371" y="879" as="sourcePoint" />
            <mxPoint x="120" y="881" as="targetPoint" />
          </mxGeometry>
        </mxCell>
        <mxCell id="WeFQbFHnC3xoli6v-mbd-86" value="" style="endArrow=none;html=1;rounded=0;exitX=0.5;exitY=1;exitDx=0;exitDy=0;" edge="1" parent="WIyWlLk6GJQsqaUBKTNV-1" source="WeFQbFHnC3xoli6v-mbd-13">
          <mxGeometry width="50" height="50" relative="1" as="geometry">
            <mxPoint x="600" y="635" as="sourcePoint" />
            <mxPoint x="693" y="877" as="targetPoint" />
          </mxGeometry>
        </mxCell>
        <mxCell id="WeFQbFHnC3xoli6v-mbd-87" value="" style="endArrow=none;html=1;rounded=0;" edge="1" parent="WIyWlLk6GJQsqaUBKTNV-1">
          <mxGeometry width="50" height="50" relative="1" as="geometry">
            <mxPoint x="694" y="877" as="sourcePoint" />
            <mxPoint x="372" y="879" as="targetPoint" />
          </mxGeometry>
        </mxCell>
      </root>
    </mxGraphModel>
  </diagram>
</mxfile>
